<?xml version="1.0" standalone="no"?><!DOCTYPE svg PUBLIC "-//W3C//DTD SVG 1.1//EN" "http://www.w3.org/Graphics/SVG/1.1/DTD/svg11.dtd"><svg t="1559783109861" class="icon" style="" viewBox="0 0 1024 1024" version="1.1" xmlns="http://www.w3.org/2000/svg" p-id="3205" xmlns:xlink="http://www.w3.org/1999/xlink" width="200" height="200"><defs><style type="text/css"></style></defs><path d="M917.629659 305.654842c0-0.102328-0.102328-0.306985-0.102328-0.409314-0.511642-2.251224-1.330269-4.297792-2.353553-6.344359-0.306985-0.61397-0.61397-1.125612-0.920955-1.637254-1.22794-2.046567-2.660538-4.093135-4.40012-5.832717L687.493155 74.392725c-1.739582-1.739582-3.78615-3.069851-5.935046-4.297791-0.511642-0.306985-1.023284-0.511642-1.534925-0.818627-2.148896-1.023284-4.40012-1.841911-6.651344-2.353553h-0.306985c-1.637254-0.306985-3.274508-0.511642-4.911762-0.511642H193.861097c-44.001199 0-79.918457 35.81493-79.918457 79.918457V869.586489c0 44.001199 35.81493 79.918457 79.918457 79.918458h644.361747c44.001199 0 79.918457-35.81493 79.918457-79.918458V311.180574c0-1.841911-0.204657-3.683821-0.511642-5.525732zM695.781753 159.632257l92.811831 90.560608 34.177676 33.359049H720.44289c-13.609673 0-24.661137-11.051464-24.661137-24.661138v-99.258519z m142.543419 734.820026H193.861097c-13.609673 0-24.661137-11.051464-24.661137-24.661137V146.431898c0-13.609673 11.051464-24.661137 24.661137-24.661138H640.626761v137.222345c0 44.103528 35.81493 79.918457 79.918457 79.918457h142.441092v530.879584c0 13.507345-11.051464 24.661137-24.661138 24.661137z" p-id="3206"></path><path d="M263.649046 381.275507h234.229639c7.674628 0 13.81433-6.139702 13.81433-13.81433s-6.139702-13.81433-13.81433-13.81433H263.649046c-7.674628 0-13.81433 6.139702-13.81433 13.81433s6.139702 13.81433 13.81433 13.81433zM746.536624 519.418807H263.649046c-7.674628 0-13.81433 6.139702-13.81433 13.81433s6.139702 13.81433 13.81433 13.81433h482.887578c7.674628 0 13.81433-6.139702 13.81433-13.81433s-6.242031-13.81433-13.81433-13.81433zM746.536624 685.190766H263.649046c-7.674628 0-13.81433 6.139702-13.81433 13.81433s6.139702 13.81433 13.81433 13.81433h482.887578c7.674628 0 13.81433-6.139702 13.81433-13.81433-0.102328-7.674628-6.242031-13.81433-13.81433-13.81433z" p-id="3207"></path></svg>