<?xml version="1.0" standalone="no"?><!DOCTYPE svg PUBLIC "-//W3C//DTD SVG 1.1//EN" "http://www.w3.org/Graphics/SVG/1.1/DTD/svg11.dtd"><svg t="1559783407771" class="icon" style="" viewBox="0 0 1024 1024" version="1.1" xmlns="http://www.w3.org/2000/svg" p-id="11397" xmlns:xlink="http://www.w3.org/1999/xlink" width="200" height="200"><defs><style type="text/css"></style></defs><path d="M896 768v42.666667a85.333333 85.333333 0 0 1-85.333333 85.333333H213.333333a85.333333 85.333333 0 0 1-85.333333-85.333333V213.333333a85.333333 85.333333 0 0 1 85.333333-85.333333h597.333334a85.333333 85.333333 0 0 1 85.333333 85.333333v42.666667h-384a85.333333 85.333333 0 0 0-85.333333 85.333333v341.333334a85.333333 85.333333 0 0 0 85.333333 85.333333m0-85.333333h426.666667V341.333333H512m170.666667 234.666667a64 64 0 0 1-64-64 64 64 0 0 1 64-64 64 64 0 0 1 64 64 64 64 0 0 1-64 64z" fill="" p-id="11398"></path></svg>